<svg width="169" height="157" viewBox="0 0 169 157" fill="none" xmlns="http://www.w3.org/2000/svg">
<path d="M156 85.5C156 76.1105 154.151 66.8129 150.557 58.1381C146.964 49.4634 141.698 41.5813 135.058 34.9419C128.419 28.3025 120.537 23.0358 111.862 19.4426C103.187 15.8494 93.8895 14 84.5 14C75.1105 14 65.8129 15.8494 57.1381 19.4426C48.4634 23.0358 40.5813 28.3025 33.9419 34.9419C27.3025 41.5813 22.0358 49.4634 18.4426 58.1381C14.8494 66.8129 13 76.1105 13 85.5L23.5836 85.5C23.5836 77.5003 25.1592 69.579 28.2206 62.1883C31.2819 54.7976 35.769 48.0822 41.4256 42.4256C47.0822 36.769 53.7976 32.2819 61.1883 29.2206C68.579 26.1592 76.5003 24.5836 84.5 24.5836C92.4997 24.5836 100.421 26.1592 107.812 29.2206C115.202 32.2819 121.918 36.769 127.574 42.4256C133.231 48.0822 137.718 54.7976 140.779 62.1883C143.841 69.579 145.416 77.5003 145.416 85.5H156Z" fill="black"/>
<path d="M141 85.5C141 75.5211 138.49 65.7024 133.702 56.9475C128.913 48.1926 121.999 40.7827 113.597 35.3996L110.387 40.4097C117.949 45.2544 124.172 51.9233 128.481 59.8027C132.791 67.6821 135.05 76.519 135.05 85.5H141Z" fill="black"/>
<path d="M98 13C98 9.55219 96.6304 6.24559 94.1924 3.80761C91.7544 1.36964 88.4478 2.60303e-07 85 0C81.5522 -2.60303e-07 78.2456 1.36964 75.8076 3.80761C73.3696 6.24558 72 9.55218 72 13L77.2 13C77.2 10.9313 78.0218 8.94735 79.4846 7.48457C80.9474 6.02178 82.9313 5.2 85 5.2C87.0687 5.2 89.0526 6.02178 90.5154 7.48457C91.9782 8.94735 92.8 10.9313 92.8 13H98Z" fill="black"/>
<path d="M156 95C158.282 95 160.524 94.3993 162.5 93.2583C164.476 92.1173 166.117 90.4762 167.258 88.5L161.193 84.998C160.666 85.9096 159.91 86.6665 158.998 87.1928C158.087 87.719 157.053 87.9961 156 87.9961L156 95Z" fill="black"/>
<path d="M13 95C10.718 95 8.47625 94.3993 6.5 93.2583C4.52375 92.1173 2.88266 90.4762 1.74167 88.5L7.80725 84.998C8.33351 85.9096 9.09045 86.6665 10.002 87.1928C10.9135 87.719 11.9475 87.9961 13 87.9961L13 95Z" fill="black"/>
<line x1="13" y1="91.5" x2="156" y2="91.5" stroke="black" stroke-width="7"/>
<path d="M145 105C146.445 105 147.875 104.664 149.21 104.01C150.544 103.357 151.757 102.4 152.778 101.192C153.8 99.9852 154.61 98.5521 155.163 96.9749C155.715 95.3977 156 93.7072 156 92H150.074C150.074 92.7874 149.942 93.5671 149.687 94.2946C149.432 95.0221 149.059 95.6831 148.588 96.2399C148.116 96.7967 147.557 97.2383 146.942 97.5396C146.326 97.841 145.666 97.9961 145 97.9961L145 105Z" fill="black"/>
<path d="M24 105C22.5555 105 21.1251 104.664 19.7905 104.01C18.4559 103.357 17.2433 102.4 16.2218 101.192C15.2004 99.9852 14.3901 98.5521 13.8373 96.9749C13.2845 95.3977 13 93.7072 13 92H18.9264C18.9264 92.7874 19.0576 93.5671 19.3126 94.2946C19.5676 95.0221 19.9413 95.6831 20.4124 96.2399C20.8836 96.7967 21.4429 97.2383 22.0584 97.5396C22.674 97.841 23.3337 97.9961 24 97.9961L24 105Z" fill="black"/>
<line x1="24" y1="101.5" x2="145" y2="101.5" stroke="black" stroke-width="7"/>
</svg>
